<?xml version="1.0" encoding="utf-8"?>
<!-- Generator: Adobe Illustrator 25.2.2, SVG Export Plug-In . SVG Version: 6.00 Build 0)  -->
<svg version="1.1" id="Layer_1" xmlns="http://www.w3.org/2000/svg" xmlns:xlink="http://www.w3.org/1999/xlink" x="0px"
     y="0px"
     viewBox="0 0 512 512" style="enable-background:new 0 0 512 512;" xml:space="preserve">
<g>
	<g>
		<g>
			<path d="M0,256c0,141.4,114.6,256,256,256s256-114.6,256-256S397.4,0,256,0S0,114.6,0,256z M42.7,256
				c0-117.8,95.5-213.3,213.3-213.3S469.3,138.2,469.3,256c0,117.8-95.5,213.3-213.3,213.3S42.7,373.8,42.7,256z"/>
            <path d="M176.9,240.9c-8.3,8.3-8.3,21.8,0,30.2l106.7,106.7c8.3,8.3,21.8,8.3,30.2,0c8.3-8.3,8.3-21.8,0-30.2L222.2,256
				l91.6-91.6c8.3-8.3,8.3-21.8,0-30.2s-21.8-8.3-30.2,0L176.9,240.9z"/>
		</g>
	</g>
</g>
</svg>
