<?xml version="1.0" encoding="utf-8"?>
<!-- Generator: Adobe Illustrator 25.2.2, SVG Export Plug-In . SVG Version: 6.00 Build 0)  -->
<svg version="1.1" id="Capa_1" xmlns="http://www.w3.org/2000/svg" xmlns:xlink="http://www.w3.org/1999/xlink" x="0px"
     y="0px"
     viewBox="0 0 512 512" style="enable-background:new 0 0 512 512;" xml:space="preserve">
<style type="text/css">
	.st0{fill:#196bac;}
</style>
    <g>
	<g>
		<path class="st0" d="M511.3,197.3c-1.8-5.4-6.5-9.4-12.1-10.2L340.4,164l-71-143.8c-2.5-5.1-7.7-8.4-13.5-8.4
			c-5.7,0-10.9,3.2-13.5,8.4l-71,143.8L12.8,187c-5.6,0.8-10.3,4.8-12.1,10.2c-1.8,5.4-0.3,11.4,3.8,15.4l114.8,112L92.3,482.7
			c-1,5.6,1.3,11.3,6,14.7c2.6,1.9,5.7,2.9,8.8,2.9c2.4,0,4.8-0.6,7-1.7l142-74.6l142,74.6c5.1,2.7,11.2,2.2,15.8-1.1s6.9-9,6-14.7
			l-27.1-158.1l114.9-112C511.6,208.6,513,202.7,511.3,197.3z"/>
	</g>
</g>
</svg>
