<?xml version="1.0" encoding="utf-8"?>
<!-- Generator: Adobe Illustrator 25.2.2, SVG Export Plug-In . SVG Version: 6.00 Build 0)  -->
<svg version="1.1" id="Capa_1" xmlns="http://www.w3.org/2000/svg" xmlns:xlink="http://www.w3.org/1999/xlink" x="0px"
     y="0px"
     viewBox="0 0 512 512" style="enable-background:new 0 0 512 512;" xml:space="preserve">
<style type="text/css">
	.st0{fill:#196bac;}
</style>
    <g>
	<g>
		<path class="st0" d="M511.3,197.3c-1.8-5.4-6.5-9.4-12.1-10.2L340.4,164l-71-143.8c-2.5-5.1-7.7-8.4-13.5-8.4
			c-5.7,0-10.9,3.2-13.5,8.4l-71,143.8L12.8,187c-5.7,0.8-10.3,4.8-12.1,10.2c-1.8,5.4-0.3,11.4,3.8,15.4l114.8,112L92.3,482.7
			c-1,5.6,1.3,11.3,6,14.7c4.6,3.4,10.7,3.8,15.8,1.1l142-74.6l142,74.6c2.2,1.2,4.6,1.7,7,1.7c3.1,0,6.2-1,8.8-2.9
			c4.6-3.4,6.9-9,6-14.7l-27.1-158.1l114.9-112C511.6,208.6,513,202.7,511.3,197.3z M366,308.6c-3.5,3.4-5.1,8.4-4.3,13.3L385,457.8
			l-122-64.2c-4.4-2.3-9.6-2.3-14,0l-122,64.2l23.3-135.9c0.8-4.9-0.8-9.8-4.3-13.3l-98.7-96.2l136.4-19.8c4.9-0.7,9.1-3.8,11.3-8.2
			l61-123.6l61,123.6c2.2,4.4,6.4,7.5,11.3,8.2l136.4,19.8L366,308.6z"/>
	</g>
</g>
</svg>
