<svg height="512" viewBox="0 0 56 56" width="512" xmlns="http://www.w3.org/2000/svg"><g id="Page-1" fill="none" fill-rule="evenodd"><g id="026---Invite-to-Game" fill="#ffffff" fill-rule="nonzero"><path id="Shape" d="m40 31v-5h-4v5c-.0032948 1.1032019-.8967981 1.9967052-2 2h-5v4h5c1.1032019.0032948 1.9967052.8967981 2 2v5h4v-5c.0032948-1.1032019.8967981-1.9967052 2-2h5v-4h-5c-1.1032019-.0032948-1.9967052-.8967981-2-2z"/><path id="Shape" d="m34 44v-5h-5c-1.1032019-.0032948-1.9967052-.8967981-2-2v-4c-.0017068-1.0727009.8479254-1.9533093 1.92-1.99-4.0016155-2.5310369-9.0639062-2.6825063-13.2096905-.3952488s-6.71734623 6.6503755-6.7103095 11.3852488v4c0 .5522847.44771525 1 1 1h24c.5522847 0 1-.4477153 1-1v-.28c-.6150891-.3551046-.9957131-1.0097779-1-1.72z"/><circle id="Oval" cx="22" cy="18" r="9"/><path id="Shape" d="m49 0h-42c-3.86416566.00440864-6.99559136 3.13583434-7 7v42c.00440864 3.8641657 3.13583434 6.9955914 7 7h42c3.8641657-.0044086 6.9955914-3.1358343 7-7v-42c-.0044086-3.86416566-3.1358343-6.99559136-7-7zm5 49c0 2.7614237-2.2385763 5-5 5h-42c-2.76142375 0-5-2.2385763-5-5v-42c0-2.76142375 2.23857625-5 5-5h42c2.7614237 0 5 2.23857625 5 5z"/><path id="Shape" d="m49 4h-42c-1.6548028.0049422-2.9950578 1.3451972-3 3v42c.0049422 1.6548028 1.3451972 2.9950578 3 3h42c1.6548028-.0049422 2.9950578-1.3451972 3-3v-42c-.0049422-1.6548028-1.3451972-2.9950578-3-3zm0 33c-.0032948 1.1032019-.8967981 1.9967052-2 2h-5v5c-.0032948 1.1032019-.8967981 1.9967052-2 2h-3c-.0049422 1.6548028-1.3451972 2.9950578-3 3h-24c-1.6548028-.0049422-2.9950578-1.3451972-3-3v-4c.00663348-6.3926631 4.0658718-12.0780058 10.11-14.16-4.5752362-2.2705958-6.9855878-7.3918549-5.8194937-12.3646424 1.166094-4.9727876 5.6018141-8.48867684 10.7094937-8.48867684s9.5433997 3.51588924 10.7094937 8.48867684c1.1660941 4.9727875-1.2442575 10.0940466-5.8194937 12.3646424 1.959881.6762388 3.7578793 1.7523135 5.28 3.16h1.83v-5c.0032948-1.1032019.8967981-1.9967052 2-2h4c1.1032019.0032948 1.9967052.8967981 2 2v5h5c1.1032019.0032948 1.9967052.8967981 2 2z"/></g></g></svg>