<?xml version="1.0" encoding="utf-8"?>
<!-- Generator: Adobe Illustrator 22.0.0, SVG Export Plug-In . SVG Version: 6.00 Build 0)  -->
<svg version="1.1" id="Layer_1" xmlns="http://www.w3.org/2000/svg" xmlns:xlink="http://www.w3.org/1999/xlink" x="0px" y="0px"
	 viewBox="0 0 24 24" style="enable-background:new 0 0 24 24;" xml:space="preserve">
<style type="text/css">
	.st0{fill:none;}
</style>
<path class="st0" d="M0,0h24v24H0V0z"/>
<path d="M7.6,4.1L6.2,2.6c-2.4,1.8-4,4.6-4.1,7.9h2C4.2,7.8,5.5,5.5,7.6,4.1z M20,10.5h2c-0.1-3.2-1.7-6-4.1-7.9l-1.4,1.4
	C18.5,5.5,19.8,7.8,20,10.5z M18,11c0-3.1-1.6-5.6-4.5-6.3V4c0-0.8-0.7-1.5-1.5-1.5S10.5,3.2,10.5,4v0.7C7.6,5.4,6,7.9,6,11v5l-2,2
	v1h16v-1l-2-2V11z M12,22c0.1,0,0.3,0,0.4,0c0.6-0.1,1.2-0.6,1.4-1.2c0.1-0.2,0.1-0.5,0.1-0.8h-4C10,21.1,10.9,22,12,22z"/>
</svg>
