<svg xmlns="http://www.w3.org/2000/svg" xmlns:xlink="http://www.w3.org/1999/xlink" width="377.3" height="108.3" viewBox="0 0 377.3 108.3"><defs><linearGradient id="a" x1="0.002" y1="0.5" x2="1.002" y2="0.5" gradientUnits="objectBoundingBox"><stop offset="0" stop-color="#196bac"/><stop offset="0.994" stop-color="#00aeef"/></linearGradient><linearGradient id="b" x1="0" y1="0.5" x2="1" y2="0.5" xlink:href="#a"/><linearGradient id="c" x1="0.001" y1="0.5" x2="1" y2="0.5" xlink:href="#a"/><linearGradient id="d" x1="-0.001" y1="0.501" x2="0.999" y2="0.501" xlink:href="#a"/><linearGradient id="e" x1="0" y1="0.5" x2="1" y2="0.5" xlink:href="#a"/><linearGradient id="f" x1="0.001" y1="0.5" x2="1.003" y2="0.5" xlink:href="#a"/></defs><g transform="translate(-795.1 -576.4)"><path d="M850,672" fill="#fff" stroke="aqua" stroke-miterlimit="10" stroke-width="1"/><path d="M850,672" fill="#fff" stroke="aqua" stroke-miterlimit="10" stroke-width="1"/><path d="M850,672" fill="#fff" stroke="aqua" stroke-miterlimit="10" stroke-width="1"/><path d="M822.8,684.7c-11.3-32.4-8.2-52.2-2.8-68,5-14.7,16.5-32.7,28.3-38.9-35.7,0-53.3,31-53.2,52.5C795.1,637,795.1,670,822.8,684.7Z" fill="#fff"/><path d="M862.2,580a68.949,68.949,0,0,0-16.8,15.5,24.589,24.589,0,0,1,2.8-.2c13.1,0,23.6,9.6,23.6,21.4s-10.6,21.4-23.6,21.4a24.454,24.454,0,0,1-19.2-8.9,79.316,79.316,0,0,0-2.5,21.1,45.721,45.721,0,0,0,21.6,5.3c23.8,0,43-17.4,43-38.9C891.2,599.7,879.1,585.2,862.2,580Z" fill="url(#a)"/><path d="M970,589.3a38.891,38.891,0,1,0,0,55A38.869,38.869,0,0,0,970,589.3Zm-42.6,42.6a21.355,21.355,0,1,1,30.2,0A21.427,21.427,0,0,1,927.4,631.9Z" fill="url(#b)"/><path d="M1131,606.3a3.714,3.714,0,0,1-.4-2.7c3.9-12.7,16.2-15.6,39.7-8.8-3.2-8.3-11.6-14.9-22.6-16.7-16.1-2.6-31.8,6-35,19.4-3.1,13.2,6.8,32.4,40.8,29.8a3.714,3.714,0,0,1,.4,2.7c-3.9,12.7-16.2,15.6-39.7,8.8,3.2,8.3,11.6,14.9,22.6,16.7,16.1,2.6,31.8-6,35-19.4C1174.9,623,1165,603.8,1131,606.3Z" fill="#17619c"/><path d="M1139.2,627c-9.7-10.2-10.4-17.1-8.5-23.4,3.9-12.7,16.2-15.6,39.7-8.8-3.2-8.3-11.6-14.9-22.6-16.7-16.1-2.6-31.8,6-35,19.4C1110.2,608.6,1116.8,623.9,1139.2,627Z" fill="url(#c)"/><path d="M1145.5,606.6c9.7,10.2,10.4,17.1,8.5,23.4-3.9,12.7-16.2,15.6-39.7,8.8,3.2,8.3,11.6,14.9,22.6,16.7,16.1,2.6,31.8-6,35-19.4C1174.4,625.1,1167.8,609.7,1145.5,606.6Z" fill="url(#d)"/><path d="M1091.4,589.3a38.891,38.891,0,1,0,0,55A38.869,38.869,0,0,0,1091.4,589.3Zm-42.6,42.6a21.355,21.355,0,1,1,30.2,0A21.426,21.426,0,0,1,1048.8,631.9Z" fill="url(#e)"/><path d="M995.2,654.2c10.7-2.3,14.9-9.8,16.4-17.5,3-14.7,0-60.3,0-60.3-10.7,2.3-14.9,9.8-16.4,17.5C992.2,608.7,995.2,654.2,995.2,654.2Z" fill="#17619c"/><path d="M995.2,654.2c10.7-2.3,14.9-9.8,16.4-17.5a84.341,84.341,0,0,0,1.2-13.3c.6-19.2-11.5-27.2-17.7-29.4C992.2,608.7,995.2,654.2,995.2,654.2Z" fill="url(#f)"/></g></svg>