<svg xmlns="http://www.w3.org/2000/svg" xmlns:xlink="http://www.w3.org/1999/xlink" width="377.3" height="108.3" viewBox="0 0 377.3 108.3"><defs><linearGradient id="a" x1="0.002" y1="0.5" x2="1.003" y2="0.5" gradientUnits="objectBoundingBox"><stop offset="0" stop-color="#196bac"/><stop offset="0.994" stop-color="#00aeef"/></linearGradient><linearGradient id="b" x1="0.001" y1="0.5" x2="1" y2="0.5" xlink:href="#a"/><linearGradient id="c" x1="0.001" y1="0.5" x2="1" y2="0.5" xlink:href="#a"/><linearGradient id="d" x1="0" y1="0.501" x2="0.999" y2="0.501" xlink:href="#a"/><linearGradient id="e" x1="0" y1="0.5" x2="1" y2="0.5" xlink:href="#a"/><linearGradient id="f" x1="0.002" y1="0.5" x2="1.004" y2="0.5" xlink:href="#a"/></defs><g transform="translate(0 -576.4)"><path d="M54.9,672" fill="#fff" stroke="aqua" stroke-miterlimit="10" stroke-width="1"/><path d="M54.9,672" fill="#fff" stroke="aqua" stroke-miterlimit="10" stroke-width="1"/><path d="M54.9,672" fill="#fff" stroke="aqua" stroke-miterlimit="10" stroke-width="1"/><path d="M27.7,684.7c-11.3-32.4-8.2-52.2-2.8-68,5-14.7,16.5-32.7,28.3-38.9-35.7,0-53.3,31-53.2,52.5C0,637,0,670,27.7,684.7Z"/><path d="M67.1,580a68.948,68.948,0,0,0-16.8,15.5,24.589,24.589,0,0,1,2.8-.2c13.1,0,23.6,9.6,23.6,21.4s-10.6,21.4-23.6,21.4a24.454,24.454,0,0,1-19.2-8.9,79.314,79.314,0,0,0-2.5,21.1A45.721,45.721,0,0,0,53,655.6c23.8,0,43-17.4,43-38.9C96.2,599.7,84,585.2,67.1,580Z" fill="url(#a)"/><path d="M174.9,589.3a38.891,38.891,0,1,0,0,55A38.869,38.869,0,0,0,174.9,589.3Zm-42.6,42.6a21.355,21.355,0,1,1,30.2,0A21.427,21.427,0,0,1,132.3,631.9Z" fill="url(#b)"/><path d="M335.9,606.3a3.713,3.713,0,0,1-.4-2.7c3.9-12.7,16.2-15.6,39.7-8.8-3.2-8.3-11.6-14.9-22.6-16.7-16.1-2.6-31.8,6-35,19.4-3.1,13.2,6.8,32.4,40.8,29.8a3.713,3.713,0,0,1,.4,2.7c-3.9,12.7-16.2,15.6-39.7,8.8,3.2,8.3,11.6,14.9,22.6,16.7,16.1,2.6,31.8-6,35-19.4C379.8,623,369.9,603.8,335.9,606.3Z" fill="#17619c"/><path d="M344.1,627c-9.7-10.2-10.4-17.1-8.5-23.4,3.9-12.7,16.2-15.6,39.7-8.8-3.2-8.3-11.6-14.9-22.6-16.7-16.1-2.6-31.8,6-35,19.4C315.1,608.6,321.7,623.9,344.1,627Z" fill="url(#c)"/><path d="M350.4,606.6c9.7,10.2,10.4,17.1,8.5,23.4-3.9,12.7-16.2,15.6-39.7,8.8,3.2,8.3,11.6,14.9,22.6,16.7,16.1,2.6,31.8-6,35-19.4C379.3,625.1,372.7,609.7,350.4,606.6Z" fill="url(#d)"/><path d="M296.3,589.3a38.891,38.891,0,1,0,0,55A38.869,38.869,0,0,0,296.3,589.3Zm-42.6,42.6a21.355,21.355,0,1,1,30.2,0A21.427,21.427,0,0,1,253.7,631.9Z" fill="url(#e)"/><path d="M200.1,654.2c10.7-2.3,14.9-9.8,16.4-17.5,3-14.7,0-60.3,0-60.3-10.7,2.3-14.9,9.8-16.4,17.5C197.1,608.7,200.1,654.2,200.1,654.2Z" fill="#17619c"/><path d="M200.1,654.2c10.7-2.3,14.9-9.8,16.4-17.5a84.341,84.341,0,0,0,1.2-13.3c.6-19.2-11.5-27.2-17.7-29.4C197.1,608.7,200.1,654.2,200.1,654.2Z" fill="url(#f)"/></g></svg>